# xmcd
#
# Track frame offsets:
#	150
#	13719
#	24802
#	35661
#	46444
#	60504
#	77103
#	91962
#	102432
#	115135
#	129716
#	147852
#	162326
#	176856
#	195378
#	218932
#	236021
#	251815
#	263558
#	277880
#	293436
#
# Disc length: 4106 seconds
#
# Revision: 1
# Processed by: cddbd v1.5.2PL0 Copyright (c) Steve Scherf et al.
# Submitted via: audiograbber 1.83.01
#
DISCID=26100815
DTITLE=Various Artist - Classic Country Music Reunion 14th Annual Jamboree
DYEAR=2005
DGENRE=Country
TTITLE0=Gloria Downer Pearson - Jones on the Juke Box
TTITLE1=Harold McIntyre - Before She Made Me Crawl
TTITLE2=Gary Peters - White Sport Coat
TTITLE3=Scotty Campbell - The Shoe's On the Other Foot
TTITLE4=Garry Hooper - I Wouldn't Take a Million Dollars for a Single Maple Lea
TTITLE4=f
TTITLE5=Louise Wright - Somebody Should Leave
TTITLE6=John Morris - The Prison Door
TTITLE7=John Lester - Walk On By
TTITLE8=Dennis Whitty - Don't Stop the Train
TTITLE9=Jim Beech - Is There Really Long Distance in Heaven?
TTITLE10=Barb Grenier - Jesus Help Me Stand
TTITLE11=Al Traynor - Remembering Mothers Day
TTITLE12=Backwoodsmen - It's All Over But the Hurtin'
TTITLE13=Norm Forrester - Words of Wisdom
TTITLE14=Reg Benoit - Joni
TTITLE15=Mary Rowan - My Fondest Memory
TTITLE16=Norm Post - A Picture of Jesus
TTITLE17=Don Cochrane - Uncle Tom
TTITLE18=Marlene Leeson - Tennessee Flat Top Box
TTITLE19=Kristin Scott - C'est La Vie
TTITLE20=Lorne Hachey - CCMR Theme Song
EXTD=
EXTT0=
EXTT1=
EXTT2=
EXTT3=
EXTT4=
EXTT5=
EXTT6=
EXTT7=
EXTT8=
EXTT9=
EXTT10=
EXTT11=
EXTT12=
EXTT13=
EXTT14=
EXTT15=
EXTT16=
EXTT17=
EXTT18=
EXTT19=
EXTT20=
PLAYORDER=
